<!-- https://app.streamlinehq.com/illustrations/free-illustrations-bundle/ux-duotone/ux-duotone/online-shop-laptop-1 -->
<svg viewBox="0 0 500 500" height="500" width="500" xmlns="http://www.w3.org/2000/svg"><g transform="matrix(1.25,0,0,1.25,0,0)"><g transform="matrix(4,0,0,4,0,0)"><path d="M9.841 54.898 A40.000 40.000 0 1 0 89.841 54.898 A40.000 40.000 0 1 0 9.841 54.898 Z" fill="#3d7098"></path><path d="M56.542,5.156v5.205a.8.8,0,0,1-.8.8H42.283a.8.8,0,0,1-.8-.8V5.156" fill="#d7e3ef" stroke="#103a5d" stroke-linecap="round" stroke-linejoin="round"></path><path d="M75.868,46.672H23.343a2,2,0,0,0-2,2V82.557H77.868V48.672A2,2,0,0,0,75.868,46.672Z" fill="#ffffff" stroke="#103a5d" stroke-linecap="round" stroke-linejoin="round"></path><path d="M73.878 50.662L25.389 50.662 25.333 82.557 73.878 82.557 73.878 50.662z" fill="#d7e3ef"></path><path d="M73.878 50.662L25.389 50.662 25.333 82.557 73.878 82.557 73.878 50.662z" fill="none" stroke="#103a5d" stroke-linecap="round" stroke-linejoin="round"></path><path d="M19.016 90.537 A31.92 1.995 0 1 0 82.856 90.537 A31.92 1.995 0 1 0 19.016 90.537 Z" fill="#103a5d" opacity=".15"></path><path d="M82.856,86.547h-66.5v-2.99a1,1,0,0,1,1-1h64.5a1,1,0,0,1,1,1Z" fill="#ffffff" stroke="#103a5d" stroke-linecap="round" stroke-linejoin="round"></path><path d="M82.856,86.548a69.163,69.163,0,0,1-18.992,2.659H35.348a69.157,69.157,0,0,1-18.992-2.659h66.5Z" fill="#ffffff" stroke="#103a5d" stroke-linecap="round" stroke-linejoin="round"></path><path d="M60.783,33.1a4.379,4.379,0,0,0-4.373-4.374H42.137A4.379,4.379,0,0,0,37.763,33.1V44.152h3.806V33.1a1.082,1.082,0,0,1,1.068-1.068H55.91A1.081,1.081,0,0,1,56.977,33.1V44.152h3.806Z" fill="#d7e3ef" stroke="#103a5d" stroke-linecap="round" stroke-linejoin="round"></path><path d="M66.9,79.518H32.31a1.24,1.24,0,0,1-1.239-1.3l1.851-36.948a1,1,0,0,1,.987-.937H65.766a1,1,0,0,1,.988.954l1.387,36.947A1.24,1.24,0,0,1,66.9,79.518Z" fill="#ffffff"></path><path d="M66.9,79.518H32.31a1.24,1.24,0,0,1-1.239-1.3l1.851-36.948a1,1,0,0,1,.987-.937H65.766a1,1,0,0,1,.988.954l1.387,36.947A1.24,1.24,0,0,1,66.9,79.518Z" fill="none" stroke="#103a5d" stroke-linecap="round" stroke-linejoin="round"></path><path d="M42.457,11.159v2.116a.8.8,0,0,0,.8.8H54.773a.8.8,0,0,0,.8-.8V11.159Z" fill="#ffffff" stroke="#103a5d" stroke-linecap="round" stroke-linejoin="round"></path><path d="M57.021,32.854V31.433h1.564a4.858,4.858,0,0,1,1.912.39,3.461,3.461,0,0,0,.026-.421V26.908c0-8.841-5.929-7.231-5.929-12.83H43.422V16.75c0,2.861-1.943,3.738-1.943,8.743v8.014a1.943,1.943,0,0,0,3.886,0v.972a1.943,1.943,0,0,0,3.886,0v.971a1.943,1.943,0,1,0,3.886,0v.607a1.943,1.943,0,1,0,3.885,0v-3.2Z" fill="#ffffff"></path><path d="M57.021,32.854V31.433h1.564a4.858,4.858,0,0,1,1.912.39,3.461,3.461,0,0,0,.026-.421V26.908c0-8.841-5.929-7.231-5.929-12.83H43.422V16.75c0,2.861-1.943,3.738-1.943,8.743v8.014a1.943,1.943,0,0,0,3.886,0v.972a1.943,1.943,0,0,0,3.886,0v.971a1.943,1.943,0,1,0,3.886,0v.607a1.943,1.943,0,1,0,3.885,0v-3.2Z" fill="none" stroke="#103a5d" stroke-linecap="round" stroke-linejoin="round"></path><path d="M57.03 27.185L57.026 33.586" fill="none" stroke="#103a5d" stroke-linecap="round" stroke-linejoin="round"></path><path d="M49.251 32.374L49.251 34.479" fill="#ffcebf" stroke="#103a5d" stroke-linecap="round" stroke-linejoin="round"></path><path d="M53.137 32.536L53.137 35.45" fill="#ffcebf" stroke="#103a5d" stroke-linecap="round" stroke-linejoin="round"></path><path d="M45.365 32.374L45.365 33.507" fill="#ffcebf" stroke="#103a5d" stroke-linecap="round" stroke-linejoin="round"></path><path d="M41.106 56.398 A1.500 1.500 0 1 0 44.106 56.398 A1.500 1.500 0 1 0 41.106 56.398 Z" fill="#103a5d"></path><path d="M55.106 56.398 A1.500 1.500 0 1 0 58.106 56.398 A1.500 1.500 0 1 0 55.106 56.398 Z" fill="#103a5d"></path><path d="M43.114,62.378c3.586,5.193,9.4,5.193,12.983,0Z" fill="#d7e3ef" stroke="#103a5d" stroke-linecap="round" stroke-linejoin="round"></path><path d="M57.031,40.331h3.752V33.1a4.367,4.367,0,0,0-3.754-4.312l0,4.288c0,.008,0,.015,0,.024Z" fill="#d7e3ef" stroke="#103a5d" stroke-linecap="round" stroke-linejoin="round"></path></g></g></svg>
